<svg id="Layer_1" xmlns="http://www.w3.org/2000/svg" viewBox="0 0 688.7 135.6"><style>.st0{fill:#e5007e}.st1{fill:#fff}</style><title>*Lobster Ink pink&amp;amp;white</title><path class="st0" d="M47.1 53.3s-.2-11.2 0-13.2c.2-2.5 1-4.9 2.4-7 1.9-2.7 2.9-4.8 2.7-5.6s-.4-.1-.4 0 .1 1.2-3.6 6.4-3.3 13.5-2.6 15.6 1.5 3.8 1.5 3.8z"/><path class="st0" d="M43.8 53.3s.2-11.2 0-13.2c-.2-2.5-1-4.9-2.4-7-1.9-2.7-2.9-4.8-2.7-5.6s.3-.1.3 0-.1 1.2 3.6 6.4 3.3 13.5 2.6 15.6-1.4 3.8-1.4 3.8zM48.9 51.8s2.5-6.3.9-8.3-4.1 4.7-3.3 8.9 2.4-.6 2.4-.6z"/><path class="st0" d="M47.3 55.4c-.3-1.9-.3-3.9-.2-5.8.3-3.7 1.2-7.3 2.8-10.6 2.3-5.4 4.7-11.2 9.8-17.2C72.2 7 88.9 5 90.5 6c.2.1.4.3.4.5-.1.6-2.5.6-3 .6-3.5 0-11.2 2.9-16.6 6.3-8 5-12.1 11.9-14.9 16.5-2.4 4-4.3 8.3-5.6 12.7-.8 3-1.4 6-1.7 9.1-.1 1.1-.2 2.1-.2 3l-1.6.7zM42 51.8s-2.5-6.3-.9-8.3 4.1 4.7 3.3 8.9-2.4-.6-2.4-.6z"/><path class="st0" d="M43.6 55.4c.3-1.9.3-3.9.2-5.8-.3-3.6-1.3-7.2-2.8-10.6-2.3-5.4-4.7-11.2-9.8-17.2C18.7 7 2 5 .4 6c-.2.1-.4.3-.4.5.1.6 2.5.6 3 .6 3.5 0 11.2 2.9 16.6 6.3 8 5 12.1 11.9 14.9 16.5 2.4 4 4.3 8.3 5.6 12.7.8 3 1.4 6 1.7 9.1.1 1.1.2 2.1.2 3l1.6.7z"/><path class="st0" d="M45.3 44c.2-.5.5-.8 1-1 1-.2 2.1 1.7 4.1 5.2 3.3 5.6 3 4.9 3.3 5.5 1.6 3.7 2.5 7.7 2.8 11.7.1.5.1 1.4.2 2.4.1 4.6-.6 9.1-2.1 13.4-6.7 21.7-10.6 27.4-10.6 27.4L42.9 46l2.4-2z"/><path class="st0" d="M45.6 44c-.2-.5-.5-.8-1-1-1-.2-2.1 1.7-4.1 5.2-3.3 5.6-3 4.9-3.3 5.5-1.6 3.7-2.5 7.7-2.8 11.7-.1.5-.2 1.4-.2 2.4-.1 4.6.6 9.1 2.1 13.4 6.7 21.7 10.5 27.5 10.5 27.5L48 46l-2.4-2z"/><path class="st0" d="M46.9 79l7.5 3.4c.6.8 1.2 1.7 1.6 2.7.4.7.6 1.5.6 2.4-.1.8-.5 1.5-.9 2.1-.3.6-.7 1.1-1.1 1.6.2.2.3.4.5.6.4.6.6 1.2.7 1.8-.1.3-.2.7-.3 1-.2.6-.5 1.2-.9 1.7.5.8.8 1.7.7 2.7-.2 1-.6 2-1.1 2.8.3 1.1.5 2.2.5 3.3-.2 1.1-.5 2.1-1 3.1.3.9.5 1.9.6 2.9-.2 1-.5 2-1 2.9.3.7.6 1.5.6 2.3-.2.9-.5 1.9-1 2.7-.3.4-1.8 5.7-4.9 7-1.6.8-3.3 1-5 .8l.2-49 3.7 1.2z"/><path class="st0" d="M44 79l-7.5 3.4c-.6.8-1.2 1.7-1.6 2.7-.4.7-.6 1.5-.6 2.4.1.8.5 1.5.9 2.1.3.6.7 1.1 1.1 1.6-.2.2-.3.4-.5.6-.4.6-.6 1.2-.7 1.8.1.3.2.7.3 1 .2.6.5 1.2.9 1.7-.5.8-.8 1.7-.7 2.7.2 1 .6 2 1.1 2.8-.3 1.1-.5 2.2-.5 3.3.2 1.1.5 2.1 1 3.1-.3.9-.5 1.9-.6 2.9.2 1 .5 2 1 2.9-.3.7-.6 1.5-.6 2.3.2.9.5 1.9 1 2.7.3.4 1.8 5.7 4.9 7 1.6.8 3.3 1 5 .8l-.2-49L44 79z"/><path class="st0" d="M49.9 119.4s14.8 4.8 11.2 12.5c0 0-1.3 1.3-4.8.4 0 0-1.6 1.6-2.4 1.7s-1.6-.4-3.2-1.5c-1.1 1.7-2.9 2.8-4.9 3.2-3.1.4-4.3-6-4.3-6l2.9-11.7 5.5 1.4z"/><path class="st0" d="M41 119.4s-14.8 4.8-11.2 12.5c0 0 1.3 1.3 4.8.4 0 0 1.6 1.6 2.4 1.7s1.6-.4 3.2-1.5c1.1 1.7 2.9 2.8 4.9 3.2 3.1.4 4.3-6 4.3-6L46.5 118l-5.5 1.4zM22.7 42.3c2.5-1.5 4.8-3.5 6.5-5.8 2.1-2.7 3.5-5.8 4.2-9.1 0 0-1.4-.9-.1-2.4s11.3-11.6 7-21c-.9 2.2-2 4.3-3.3 6.3-1.7 2.6-3.7 5-6 7.1 0-2.1.4-4.3 1.1-6.3 1.2-3.6 3.4-6.9 6.3-9.4C36.5.6 34.4.1 32.2 0 21.9-.2 15.3 13 14.7 14.4 9.9 24.4 10.3 38.6 16 42l.1.1 6.6.2z"/><path class="st0" d="M14.9 40.3c.9.8 1.5 1.9 1.6 3.1.1 1.3-.4 2.7-1 3.2l-.7.4c-.5.2-1 .4-1.5.4-.2.1-.3.2-.4.4-.1.3 0 .5.1.8 1.2 2.3 1.8 3.4 11.9 11h.1c1.3 1 3.4 2.3 3.4 2.3 1 .6 2.3 1.5 2.7 1.8 2.7 2.1 2.3 7.1 2.3 8.9-.1 9.4 7.6 18.8 9.1 18.3 2.4-.8-4.4-30.7-5.6-30.5-.1 0-.2.1-.2.5 0 0 2.1-4.4-9.6-12.2s-.7-25.4-.7-25.4l-11.5 17z"/><path class="st0" d="M22.4 37.5s.1 5.2 2.9 8.6c1 1.1 2.1 2.1 3.4 3 2.1 1.6 2.2 1.4 3.4 2.5 1 .8 4.1 3.6 4.6 7.6.2 1.1.2 1.9-.2 2.3L22.7 53c-1.1-6.9-1-9.7-.8-10.9.4-1.5.6-3.1.5-4.6zM67.6 42.3c-2.5-1.5-4.8-3.5-6.5-5.8-2.1-2.7-3.5-5.8-4.2-9.1 0 0 1.4-.9.1-2.4S45.6 13.4 49.9 4c.4.9.9 1.9 1.4 3 .5 1.2 1.1 2.4 1.8 3.6 1.9 3.2 4.4 6 7.4 8.2.5-.5 1-1.2 1.3-1.9 1.5-3.3-.1-6.8-.9-8.5-.3-.7-2.3-4.9-4.8-5.6l-3.6-1-.5-.1c1.9-1 4-1.6 6.1-1.7 10.3-.3 17 11.7 17.7 13 5.6 10.4 4.8 25.3-1.5 29h-.1l-6.6.3z"/><path class="st0" d="M75.4 40.3c-.9.8-1.5 1.9-1.6 3.1-.1 1.3.4 2.7 1 3.2l.7.4c.5.2 1 .4 1.5.4.2.1.3.2.4.4.1.3 0 .5-.1.8-1.2 2.3-1.8 3.4-11.9 11h-.1c-1.3 1-3.4 2.3-3.4 2.3-1 .6-2.3 1.5-2.7 1.8-2.7 2.1-2.3 7.1-2.3 8.9.1 9.4-7.7 18.7-9.1 18.2-2.4-.8 4.4-30.7 5.6-30.5.1 0 .1.1.2.5 0 0-2.1-4.4 9.6-12.2s.7-25.4.7-25.4l11.5 17.1z"/><path class="st0" d="M67.9 37.5s-.1 5.2-2.9 8.6c-1 1.1-2.1 2.1-3.4 3-2.1 1.6-2.2 1.4-3.4 2.5-1 .8-4.1 3.6-4.6 7.6-.1 1.1-.2 1.9.2 2.3L67.6 53c1.1-6.9 1-9.7.8-10.9-.4-1.5-.6-3.1-.5-4.6zM59.9 19.2c.4-.4.7-.8 1-1.3.3-.6.5-1.2.5-1.9-.1-.9-.7-1.1-1.1-2.2-.2-.7-.3-1.4-.2-2.1-.7-.4-1.2-1-1.4-1.7-.2-.6-.2-1.3-.1-1.9-1.4-.8-2.4-2.2-2.8-3.8-.8-1.4-2.2-2.3-3.7-2.6 1.9-.3 3.8.1 5.4 1.3.9.6 1.5 1.5 2 2.5 0 0 4.6 5 3.9 11.7 0 .2-.1.4-.2.6-.3.4-.7.7-1.1.9-.7.3-1.4.5-2.2.5z"/><path class="st1" d="M112.9 31.8c2.1-.3 4.3-.3 6.4 0v84.3h29.5c1 2.1 1.7 3.5 3 6h-39l.1-90.3z"/><path class="st1" d="M157 125.1h-47.1v-96l2.7-.4c1.1-.2 2.2-.2 3.4-.2 1.4 0 2.7.1 3.8.2l2.8.3v84H151l1.4 2.9c.7 1.5 1.3 2.8 2.4 4.7l2.2 4.5zm-41-6.1h.3V34.7h-.3V119zM155.4 90.7v-.2c0-17.7 13.8-33.1 32.6-33.1s32.4 15.1 32.4 32.9v.2c0 17.7-13.8 33.1-32.6 33.1s-32.4-15.2-32.4-32.9zm58.4 0v-.2c0-15.2-11.4-27.4-26-27.4-15 0-25.8 12.3-25.8 27.2v.2c0 15.2 11.4 27.4 26 27.4 15-.1 25.8-12.4 25.8-27.2z"/><path class="st1" d="M187.8 126.6c-19.9 0-35.4-15.8-35.4-35.9v-.2c0-20.3 15.7-36.2 35.7-36.2s35.4 15.8 35.4 36v.2c0 20.2-15.7 36.1-35.7 36.1zm0-60.5c-13 0-22.7 10.4-22.7 24.1v.2c0 13.6 10.1 24.3 23 24.3s22.7-10.4 22.7-24.1v-.2c0-13.6-10.1-24.3-23-24.3zM165 71.4c-4.3 5.4-6.5 12.1-6.5 19v.2c-.1 9.2 4 17.9 11.2 23.6-6.9-6-10.9-14.7-10.8-23.8v-.2c0-6.8 2.1-13.4 6.1-18.8zm41.1-4.8c7 6 10.9 14.7 10.8 23.9v.2c.1 6.7-2 13.3-6 18.7 4.2-5.4 6.5-12.1 6.5-19v-.2c.1-9.2-4.1-17.9-11.3-23.6zM241.1 108.4V122H235V35.7c2-.3 4.1-.3 6.1 0V73c5.5-8.3 13.5-15.6 26-15.6 15.2 0 30.8 12.3 30.8 32.9v.2c0 20.6-15.5 33.1-30.8 33.1-12.6-.1-20.8-7.3-26-15.2zm50.2-17.7v-.2c0-16.6-11.5-27.3-24.8-27.3s-25.8 11-25.8 27.2v.2c0 16.2 12.6 27.2 25.8 27.2 13.8-.1 24.8-10.2 24.8-27.1z"/><path class="st1" d="M267.1 126.6c-8.6.1-16.9-3.4-23-9.6v8.1h-12.2v-92l2.6-.4c1.1-.2 2.1-.3 3.2-.2 1.2 0 2.5.1 3.7.2l2.7.3v31.2c5.9-6.4 14.3-10 23-9.9 16.6 0 33.8 13.4 33.8 35.9v.2c.1 22.7-17.1 36.2-33.8 36.2zm-.6-60.4c-10.9 0-22.7 9.2-22.7 24.1v.2c0 11.6 8.7 24.1 22.7 24.1 13 0 21.7-9.6 21.7-24v-.2c0-15.9-10.9-24.2-21.7-24.2zm13.8-2.4c8.5 5.1 14.1 14.9 14.1 26.6v.2c.1 5.3-1.1 10.5-3.4 15.2 2.6-4.8 3.9-10.1 3.8-15.5v-.2c0-10.4-5.2-21-14.5-26.3zm-42.2 34.4l.8 1.2c-.3-1.2-.6-2.3-.8-3.5v2.3zm0-15.1V85c.2-1 .4-1.9.6-2.9l-.6 1zM401.1 89.8v-.2c0-18.4 12.9-33 30-33 17.7 0 29 14.4 29 33.1 0 .8 0 1.7-.1 2.5h-52.4c1.1 15.8 12.4 24.9 24.8 24.9 9.8 0 16.5-4.3 21.7-9.9l4.2 3.7c-6.5 6.9-14 11.9-26.2 11.9-16.6 0-31-13.2-31-33zm52.5-3.1c-.9-12.8-8.2-24.6-22.7-24.6-12.5 0-22.2 10.5-23.3 24.6h46z"/><path class="st1" d="M432.1 125.9c-19.4 0-34.1-15.5-34.1-36.1v-.2c0-20.2 14.5-36.1 33.1-36.1 18.9 0 32.1 14.9 32.1 36.2 0 1 0 1.9-.2 2.9l-.3 2.7H411c2.1 11.2 10.5 18.8 21.3 18.8 7.6 0 13.8-2.8 19.5-9l2-2.2 8.8 7.8-2.1 2.3c-5.5 6-13.8 12.9-28.4 12.9zm-25.7-48.4c-1.5 3.9-2.2 8-2.2 12.1v.2c-.1 5.9 1.5 11.7 4.5 16.8-2.5-4.3-3.9-9.2-4.2-14.2l-.2-2.6h-.1v-.7l.2-2.6c.3-3.1.9-6.1 2-9zm50.4 11.6h.3c0-5.7-1.4-11.3-4-16.4 2.1 4.3 3.3 9 3.6 13.8l.1 2.6zm-45.7-5.4h39.1C448 70.2 439 65.2 430.9 65.2c-9.8.1-17.7 7.6-19.8 18.5zM476.5 59.3c1.9-.1 4-.1 6.1 0v18c5-11.3 15.5-19.5 29.8-19L510 65c-14.6 0-27.4 11-27.4 31.6v25.9h-6.1V59.3z"/><path class="st1" d="M485.7 125.6h-12.2V56.4l2.9-.2c1.9-.1 4.1-.1 6.4 0l3 .1v10.3c6.4-7.4 15.7-11.6 25.5-11.5h1.3l2.6.1-4.7 12.8h-.5c-12.1 0-24.3 8.8-24.3 28.5v29.1zm-6.1-33.9V94c.1-1 .1-1.9.2-2.8l-.2.5zM508 61.5c-2.5.3-5 .9-7.4 1.8 2.3-.7 4.8-1.2 7.2-1.4l.2-.4zM538.8 32.3c2.1-.1 4.3-.1 6.4 0v89.4h-6.4V32.3z"/><path class="st1" d="M548.3 124.8h-12.5V29.4l2.9-.1c2.2-.1 4.5-.1 6.7 0l2.9.1v95.4zm-6.4-6.1h.2V35.3h-.2v83.4zM564 59.2c2-.1 4-.1 6 0v11.7c4.2-7.4 11.2-13.1 22.6-13.1 15.8 0 25 10.8 25 25.8v38.3h-6V84.6c0-12.9-7.2-21.4-19.9-21.4-12.3 0-21.7 9.3-21.7 22.3v36.2h-6V59.2z"/><path class="st1" d="M620.7 124.8h-12.2V84.6c0-11.6-6.1-18.3-16.8-18.3-10.7 0-18.7 8.1-18.7 19.3v39.3h-12.2V56.3l2.9-.2c2.1-.1 4.3-.1 6.4 0l2.9.2v5.6c5.1-4.8 11.8-7.3 19.5-7.3 16.8 0 28.1 11.6 28.1 28.8l.1 41.4zm-53.6-42.6v.5c0-.2 0-.5.1-.7l-.1.2zm39.1-17.5c4.4 3.4 7.2 8.5 8.2 15-.8-6.6-3.7-11.7-8.2-15zM635.8 39.9c2-.1 4-.1 6 0v58.4l32.4-39.1c2.7-.2 5.3-.2 8 0l-22.5 25.6 22.5 36.8h-7.6l-19-32.5-13.8 17.5v15.2h-6V39.9z"/><path class="st1" d="M644.9 124.8h-12.2V37l2.9-.2c2.1-.1 4.3-.1 6.4 0l2.9.2v52.7l27.8-33.5 1.3-.1c2.8-.2 5.6-.2 8.3 0l6.3.3-25.2 28.7 24.2 39.6h-14.8l-17.6-30.1-10.3 13.1v17.1zm31.5-6.3h.4l-9.1-14.9 8.7 14.9zM370 106.6V39.2c2-.2 4.1-.2 6.1 0v19.1h18.2l-1.3 5.3h-16.9V106c0 8.2 5.4 12.1 12.6 11.2.8-.1 1.6-.3 2.4-.5l3.3 4.4c-2.1.9-4.4 1.4-6.8 1.3-9.7.3-17.6-4.8-17.6-15.8z"/><path class="st1" d="M387 125.5c-12.2 0-20-7.4-20-18.9V36.4l2.8-.3c2.2-.2 4.5-.2 6.7 0l2.8.3v18.8h19.1l-2.8 11.5h-16.3v39.4c0 5.3 2.7 8.2 7.5 8.2.6 0 1.1 0 1.6-.1.7-.1 1.3-.2 2-.4l2-.5 6.9 9.1-3.5 1.6c-2.5 1.1-5.2 1.6-7.9 1.6l-.9-.1zM307.5 114.2l3-5.3c8 5.4 15.7 8.4 23.7 8.4 8.5 0 15.2-4.7 15.2-12v-.2c0-7.4-7.9-10.1-16.7-12.6-10.3-3-21.7-6.1-21.7-17.3v-.3c0-10.1 8.5-17.5 20.8-17.5 7.5 0 13.2 1 20.6 6L350 69c-6.9-4.7-11.8-5.8-18.5-5.8-8.7 0-14.4 4.7-14.4 11v.2c0 7.1 8.5 9.6 17.6 12.2 10.1 2.9 20.8 6.6 20.8 17.7v.2c0 11.3-9.6 18.4-21.8 18.4-9.4 0-18.6-3.1-26.2-8.7z"/><path class="st1" d="M333.8 126c-10.1-.1-19.9-3.4-28.1-9.4l-2.2-1.6 5.9-10.5 2.7 1.8c7.9 5.4 15 7.9 22 7.9 5.9 0 12.2-2.8 12.2-9v-.2c0-4.8-4.9-7-14.5-9.7l-.5-.2c-10.4-3-23.3-6.7-23.3-20.1v-.3c0-11.9 10-20.5 23.8-20.5 8.1 0 14.3 1.1 22.3 6.5l2.1 1.4-4.8 11.1-3-2c-6.6-4.4-11-5.3-16.8-5.3-6.7 0-11.3 3.3-11.3 8v.2c0 4.6 6.4 6.8 15.4 9.3 8.6 2.4 23 6.5 23 20.6v.2c0 12.8-10.5 21.8-24.9 21.8zm-22.3-12.8c1.9 1.2 3.9 2.2 5.9 3.1-2-.9-4-1.9-5.9-3.1zm3-41.5c-.2 1-.4 2.1-.4 3.1v.2c0 8.2 7.5 11 19 14.3l.5.1c8 2.2 18.9 5.3 18.9 15.5v.2c0 .9-.1 1.8-.2 2.6.3-1.1.4-2.2.4-3.4v-.2c0-8-6.8-11.5-18.6-14.8-9.3-2.7-19.8-5.7-19.8-15.2v-.2c0-.6 0-1.4.2-2.2z"/></svg>